<?xml version="1.0" standalone="no" ?>
<!DOCTYPE svg PUBLIC "-//W3C//DTD SVG 1.1//EN" "http://www.w3.org/Graphics/SVG/1.1/DTD/svg11.dtd">
<svg width="128px" height="84px" viewBox="0 0 128 84" style="background-color: #ffffff00" xmlns="http://www.w3.org/2000/svg" xmlns:xlink="http://www.w3.org/1999/xlink" version="1.1" >
<text x="0" y="0" stroke="none" fill="#000000" transform="matrix(0.05 0 0 0.05 30.1533 14.5864)" font-style="normal" font-weight="normal" font-size="200px" font-family="Helvetica" >
H</text>
<text x="0" y="0" stroke="none" fill="#000000" transform="matrix(0.05 0 0 0.05 16.1341 37.5864)" font-style="normal" font-weight="normal" font-size="200px" font-family="Helvetica" >
N</text>
<path stroke="none" fill="#000000" transform="matrix(0.05 0 0 0.05 -178 -97)" d="M 4017.53,2514.17 L 3997.98,2502.25 L 4119.37,2251.22 L 4185.03,2291.24 L 4017.53,2514.17 Z " />
<path stroke="none" fill="#000000" transform="matrix(0.05 0 0 0.05 -178 -97)" d="M 4459.23,2906.78 L 4459.23,2920 L 4450.35,2928.09 L 4042.16,2692.42 L 4053.6,2672.59 L 4459.23,2906.78 Z " />
<path stroke="none" fill="#000000" transform="matrix(0.05 0 0 0.05 -178 -97)" d="M 4978.85,2606.78 L 4978.85,2633.22 L 4474.91,2924.17 L 4459.23,2920 L 4459.23,2906.78 L 4978.85,2606.78 Z " />
<text x="0" y="0" stroke="none" fill="#000000" transform="matrix(0.05 0 0 0.05 93.427 52.5864)" font-style="normal" font-weight="normal" font-size="200px" font-family="Helvetica" >
O</text>
<path stroke="none" fill="#000000" transform="matrix(0.05 0 0 0.05 -178 -97)" d="M 5406.4,2853.63 L 5394.95,2873.46 L 4978.85,2633.22 L 4978.85,2606.78 L 5406.4,2853.63 Z " />
<text x="0" y="0" stroke="none" fill="#000000" transform="matrix(0.05 0 0 0.05 120.057 37.5864)" font-style="normal" font-weight="normal" font-size="200px" font-family="Helvetica" >
H</text>
<path stroke="none" fill="#000000" transform="matrix(0.05 0 0 0.05 -178 -97)" d="M 5904.48,2672.37 L 5915.93,2692.19 L 5602.13,2873.37 L 5590.68,2853.54 L 5904.48,2672.37 Z " />
<text x="0" y="0" stroke="none" fill="#000000" transform="matrix(0.05 0 0 0.05 67.4462 9.58643)" font-style="normal" font-weight="normal" font-size="200px" font-family="Helvetica" >
O</text>
<path stroke="none" fill="#000000" transform="matrix(0.05 0 0 0.05 -178 -97)" d="M 4933.8,2178.32 L 4956.69,2178.32 L 4956.69,2639.4 L 4933.8,2639.4 L 4933.8,2178.32 Z " />
<path stroke="none" fill="#000000" transform="matrix(0.05 0 0 0.05 -178 -97)" d="M 5001,2178.32 L 5023.89,2178.32 L 5023.89,2639.4 L 5001,2639.4 L 5001,2178.32 Z " />
<text x="0" y="0" stroke="none" fill="#000000" transform="matrix(0.05 0 0 0.05 2.13408 14.5864)" font-style="normal" font-weight="normal" font-size="200px" font-family="Helvetica" >
H</text>
<path stroke="none" fill="#000000" transform="matrix(0.05 0 0 0.05 -178 -97)" d="M 3694.77,2291.7 L 3760.46,2251.72 L 3770.45,2272.44 L 3708.58,2310.1 L 3694.77,2291.7 Z " />
<path stroke="none" fill="#000000" transform="matrix(0.05 0 0 0.05 -178 -97)" d="M 3745.84,2359.72 L 3797.42,2328.32 L 3807.41,2349.04 L 3759.65,2378.11 L 3745.84,2359.72 Z " />
<path stroke="none" fill="#000000" transform="matrix(0.05 0 0 0.05 -178 -97)" d="M 3796.9,2427.73 L 3834.38,2404.92 L 3844.37,2425.64 L 3810.71,2446.13 L 3796.9,2427.73 Z " />
<path stroke="none" fill="#000000" transform="matrix(0.05 0 0 0.05 -178 -97)" d="M 3847.96,2495.74 L 3871.34,2481.52 L 3881.33,2502.23 L 3861.78,2514.14 L 3847.96,2495.74 Z " />
<text x="0" y="0" stroke="none" fill="#000000" transform="matrix(0.05 0 0 0.05 57.1148 81.5864)" font-style="normal" font-weight="normal" font-size="200px" font-family="Helvetica" >
H</text>
<path stroke="none" fill="#000000" transform="matrix(0.05 0 0 0.05 -178 -97)" d="M 4733.81,3367.17 L 4665.51,3402.49 L 4450.35,2928.09 L 4459.23,2920 L 4474.91,2924.17 L 4733.81,3367.17 Z " />
<text x="0" y="0" stroke="none" fill="#000000" transform="matrix(0.05 0 0 0.05 28.0215 80.5864)" font-style="normal" font-weight="normal" font-size="200px" font-family="Helvetica" >
R</text>
<path stroke="none" fill="#000000" transform="matrix(0.05 0 0 0.05 -178 -97)" d="M 4266.74,3392.2 L 4197.93,3357.89 L 4209.4,3338.02 L 4275.7,3371.08 L 4266.74,3392.2 Z " />
<path stroke="none" fill="#000000" transform="matrix(0.05 0 0 0.05 -178 -97)" d="M 4293.95,3328.08 L 4232.77,3297.58 L 4244.24,3277.71 L 4302.91,3306.97 L 4293.95,3328.08 Z " />
<path stroke="none" fill="#000000" transform="matrix(0.05 0 0 0.05 -178 -97)" d="M 4321.15,3263.96 L 4267.6,3237.27 L 4279.08,3217.4 L 4330.11,3242.85 L 4321.15,3263.96 Z " />
<path stroke="none" fill="#000000" transform="matrix(0.05 0 0 0.05 -178 -97)" d="M 4348.35,3199.85 L 4302.44,3176.96 L 4313.92,3157.09 L 4357.31,3178.73 L 4348.35,3199.85 Z " />
<path stroke="none" fill="#000000" transform="matrix(0.05 0 0 0.05 -178 -97)" d="M 4375.56,3135.73 L 4337.28,3116.65 L 4348.76,3096.78 L 4384.52,3114.61 L 4375.56,3135.73 Z " />
<path stroke="none" fill="#000000" transform="matrix(0.05 0 0 0.05 -178 -97)" d="M 4402.76,3071.61 L 4372.12,3056.33 L 4383.6,3036.47 L 4411.72,3050.5 L 4402.76,3071.61 Z " />
<path stroke="none" fill="#000000" transform="matrix(0.05 0 0 0.05 -178 -97)" d="M 4429.97,3007.49 L 4406.96,2996.02 L 4418.43,2976.16 L 4438.92,2986.38 L 4429.97,3007.49 Z " />
</svg>
