<?xml version='1.0' encoding='UTF-8' standalone='no'?><svg xmlns="http://www.w3.org/2000/svg" xmlns:xlink="http://www.w3.org/1999/xlink" version="1.1" baseProfile="full" width="1110" height="747"><g class="meta"><rect width="100%" height="100%" style="fill: rgb(255, 255, 255);"/><title>Simulated Mass Spectrum</title><desc>Simulated Mass Spectrum</desc><style>text {font-family: Helvetica Neue, Helvetica, Arial, sans-serif;}</style></g><defs><clipPath id="clip-MassSpectrumContainer"><rect width="1035" height="640"/></clipPath><g id="tooltipdef_MassSpectrumContainer"><rect width="120" height="2em" fill="lightgray" opacity="0.5"/><line x1="120" y1="2em" x2="132" y2="50" stroke-linecap="round" style="stroke: rgb(251, 80, 80); stroke-width: 2px;"/><line x1="0" y1="2em" x2="120" y2="2em" style="stroke: rgb(251, 80, 80); stroke-width: 3px;"/></g><g id="markerdef_MassSpectrumContainer"><circle r="5" style="fill: none; pointer-events: none; stroke: rgb(251, 80, 80); stroke-width: 3px;"/><rect width="120" height="3em" fill="lightgray" opacity="0.5" x="12" y="-74"/><line x1="2" y1="-3" x2="12" y2="-32" stroke-linecap="round" style="stroke: rgb(251, 80, 80); stroke-width: 2px;"/><line x1="12" y1="-32" x2="132" y2="-32" style="stroke: rgb(251, 80, 80); stroke-width: 3px;"/></g></defs><g class="canvas" font-size="14px" transform="translate(70,60)"><g class="axis xaxis" transform="translate(0,649)" fill="none" font-size="10" font-family="sans-serif" text-anchor="middle" color="#212529"><path class="domain" stroke="currentColor" d="M0.5,6V0.5H1035.5V6"/><g class="tick" opacity="1" transform="translate(0.5,0)"><line stroke="currentColor" y2="6"/><text fill="currentColor" y="9" dy="0.71em">95</text></g><g class="tick" opacity="1" transform="translate(129.875,0)"><line stroke="currentColor" y2="6"/><text fill="currentColor" y="9" dy="0.71em">100</text></g><g class="tick" opacity="1" transform="translate(259.25,0)"><line stroke="currentColor" y2="6"/><text fill="currentColor" y="9" dy="0.71em">105</text></g><g class="tick" opacity="1" transform="translate(388.625,0)"><line stroke="currentColor" y2="6"/><text fill="currentColor" y="9" dy="0.71em">110</text></g><g class="tick" opacity="1" transform="translate(518,0)"><line stroke="currentColor" y2="6"/><text fill="currentColor" y="9" dy="0.71em">115</text></g><g class="tick" opacity="1" transform="translate(647.375,0)"><line stroke="currentColor" y2="6"/><text fill="currentColor" y="9" dy="0.71em">120</text></g><g class="tick" opacity="1" transform="translate(776.75,0)"><line stroke="currentColor" y2="6"/><text fill="currentColor" y="9" dy="0.71em">125</text></g><g class="tick" opacity="1" transform="translate(906.125,0)"><line stroke="currentColor" y2="6"/><text fill="currentColor" y="9" dy="0.71em">130</text></g><g class="tick" opacity="1" transform="translate(1035.5,0)"><line stroke="currentColor" y2="6"/><text fill="currentColor" y="9" dy="0.71em">135</text></g></g><text class="axis xlabel" transform="translate(517.5, 675)" style="text-anchor: middle;" color="#212529">m/z</text><g class="axis yaxis" transform="translate(-10,0)" fill="none" font-size="10" font-family="sans-serif" text-anchor="end" color="#212529"><path class="domain" stroke="currentColor" d="M-6,639.5H0.5V0.5H-6"/><g class="tick" opacity="1" transform="translate(0,639.5)"><line stroke="currentColor" x2="-6"/><text fill="currentColor" x="-9" dy="0.32em">0.0</text></g><g class="tick" opacity="1" transform="translate(0,586.25)"><line stroke="currentColor" x2="-6"/><text fill="currentColor" x="-9" dy="0.32em">0.10</text></g><g class="tick" opacity="1" transform="translate(0,533)"><line stroke="currentColor" x2="-6"/><text fill="currentColor" x="-9" dy="0.32em">0.20</text></g><g class="tick" opacity="1" transform="translate(0,479.75)"><line stroke="currentColor" x2="-6"/><text fill="currentColor" x="-9" dy="0.32em">0.30</text></g><g class="tick" opacity="1" transform="translate(0,426.5)"><line stroke="currentColor" x2="-6"/><text fill="currentColor" x="-9" dy="0.32em">0.40</text></g><g class="tick" opacity="1" transform="translate(0,373.24999999999994)"><line stroke="currentColor" x2="-6"/><text fill="currentColor" x="-9" dy="0.32em">0.50</text></g><g class="tick" opacity="1" transform="translate(0,320)"><line stroke="currentColor" x2="-6"/><text fill="currentColor" x="-9" dy="0.32em">0.60</text></g><g class="tick" opacity="1" transform="translate(0,266.75)"><line stroke="currentColor" x2="-6"/><text fill="currentColor" x="-9" dy="0.32em">0.70</text></g><g class="tick" opacity="1" transform="translate(0,213.49999999999994)"><line stroke="currentColor" x2="-6"/><text fill="currentColor" x="-9" dy="0.32em">0.80</text></g><g class="tick" opacity="1" transform="translate(0,160.25)"><line stroke="currentColor" x2="-6"/><text fill="currentColor" x="-9" dy="0.32em">0.90</text></g><g class="tick" opacity="1" transform="translate(0,106.99999999999997)"><line stroke="currentColor" x2="-6"/><text fill="currentColor" x="-9" dy="0.32em">1.0</text></g><g class="tick" opacity="1" transform="translate(0,53.74999999999995)"><line stroke="currentColor" x2="-6"/><text fill="currentColor" x="-9" dy="0.32em">1.1</text></g><g class="tick" opacity="1" transform="translate(0,0.5)"><line stroke="currentColor" x2="-6"/><text fill="currentColor" x="-9" dy="0.32em">1.2</text></g></g><text class="axis ylabel" transform="rotate(-90)" y="-70" x="-319.5" dy="1em" style="text-anchor: middle;" color="#212529">Rel.abundance</text><g class="areas" clip-path="url(#clip-MassSpectrumContainer)"/><g class="brush" fill="none" pointer-events="all"><rect class="overlay" pointer-events="all" x="0" y="0" width="1035" height="639"/><rect class="selection" cursor="move" fill="#777" fill-opacity="0.3" stroke="#fff" shape-rendering="crispEdges" style="display: none;"/><rect class="handle handle--n" cursor="ns-resize" style="display: none;"/><rect class="handle handle--w" cursor="ew-resize" style="display: none;"/><rect class="handle handle--e" cursor="ew-resize" style="display: none;"/><rect class="handle handle--s" cursor="ns-resize" style="display: none;"/><rect class="handle handle--nw" cursor="nwse-resize" style="display: none;"/><rect class="handle handle--ne" cursor="nesw-resize" style="display: none;"/><rect class="handle handle--sw" cursor="nesw-resize" style="display: none;"/><rect class="handle handle--se" cursor="nwse-resize" style="display: none;"/></g><g class="droplineSeries monoavmass0C3H7NO2S" clip-path="url(#clip-MassSpectrumContainer)"><line class="dropline monoavmass0C3H7NO2S" stroke="#2851bd" style="stroke-dasharray: 3, 3;" fill="none" stroke-width="2" x1="673.2610175357377" y1="106.49999999999997" x2="673.2610175357377" y2="639"/><line class="dropline monoavmass0C3H7NO2S" stroke="#2851bd" style="stroke-dasharray: 3, 3;" fill="none" stroke-width="2" x1="676.840663371817" y1="106.49999999999997" x2="676.840663371817" y2="639"/><text class="pointlabel monoavmass0C3H7NO2S" x="673.2610175357377" y="94.49999999999997" text-anchor="middle">monoisotopic</text><text class="pointlabel monoavmass0C3H7NO2S" x="676.840663371817" y="94.49999999999997" text-anchor="middle">average</text></g><g class="droplineSeries isotopic0C3H7NO2S" clip-path="url(#clip-MassSpectrumContainer)"><line class="dropline isotopic0C3H7NO2S" stroke="#2851bd" fill="none" stroke-width="2" x1="673.2610175357377" y1="106.49999999999997" x2="673.2610175357377" y2="639"/><line class="dropline isotopic0C3H7NO2S" stroke="#2851bd" fill="none" stroke-width="2" x1="699.1936332087197" y1="614.7377062275" x2="699.1936332087197" y2="639"/><line class="dropline isotopic0C3H7NO2S" stroke="#2851bd" fill="none" stroke-width="2" x1="724.923965199222" y1="612.5476413915383" x2="724.923965199222" y2="639"/><line class="dropline isotopic0C3H7NO2S" stroke="#2851bd" fill="none" stroke-width="2" x1="750.8707684265131" y1="638.0009051976413" x2="750.8707684265131" y2="639"/><line class="dropline isotopic0C3H7NO2S" stroke="#2851bd" fill="none" stroke-width="2" x1="776.7266546339312" y1="638.8294805281047" x2="776.7266546339312" y2="639"/><line class="dropline isotopic0C3H7NO2S" stroke="#2851bd" fill="none" stroke-width="2" x1="802.6621040031392" y1="638.9942116529114" x2="802.6621040031392" y2="639"/><text class="pointlabel isotopic0C3H7NO2S" x="673.2610175357377" y="94.49999999999997" text-anchor="middle"/><text class="pointlabel isotopic0C3H7NO2S" x="699.1936332087197" y="602.7377062275" text-anchor="middle"/><text class="pointlabel isotopic0C3H7NO2S" x="724.923965199222" y="600.5476413915383" text-anchor="middle"/><text class="pointlabel isotopic0C3H7NO2S" x="750.8707684265131" y="626.0009051976413" text-anchor="middle"/><text class="pointlabel isotopic0C3H7NO2S" x="776.7266546339312" y="626.8294805281047" text-anchor="middle"/><text class="pointlabel isotopic0C3H7NO2S" x="802.6621040031392" y="626.9942116529114" text-anchor="middle"/></g><g class="droplineSeries monoavmass2C3H7NO3" clip-path="url(#clip-MassSpectrumContainer)"><line class="dropline monoavmass2C3H7NO3" stroke="#ebb700" style="stroke-dasharray: 3, 3;" fill="none" stroke-width="2" x1="259.8520961530815" y1="106.49999999999997" x2="259.8520961530815" y2="639"/><line class="dropline monoavmass2C3H7NO3" stroke="#ebb700" style="stroke-dasharray: 3, 3;" fill="none" stroke-width="2" x1="261.14889612288994" y1="106.49999999999997" x2="261.14889612288994" y2="639"/><text class="pointlabel monoavmass2C3H7NO3" x="259.8520961530815" y="94.49999999999997" text-anchor="middle">monoisotopic</text><text class="pointlabel monoavmass2C3H7NO3" x="261.14889612288994" y="94.49999999999997" text-anchor="middle">average</text></g><g class="droplineSeries isotopic2C3H7NO3" clip-path="url(#clip-MassSpectrumContainer)"><line class="dropline isotopic2C3H7NO3" stroke="#ebb700" fill="none" stroke-width="2" x1="259.8520961530815" y1="106.49999999999997" x2="259.8520961530815" y2="639"/><line class="dropline isotopic2C3H7NO3" stroke="#ebb700" fill="none" stroke-width="2" x1="285.80047087833157" y1="618.7392530925" x2="285.80047087833157" y2="639"/><line class="dropline isotopic2C3H7NO3" stroke="#ebb700" fill="none" stroke-width="2" x1="311.71453697560844" y1="635.4289614929596" x2="311.71453697560844" y2="639"/><line class="dropline isotopic2C3H7NO3" stroke="#ebb700" fill="none" stroke-width="2" x1="337.659798079289" y1="638.8755614134056" x2="337.659798079289" y2="639"/><line class="dropline isotopic2C3H7NO3" stroke="#ebb700" fill="none" stroke-width="2" x1="363.5776308571184" y1="638.9915857370637" x2="363.5776308571184" y2="639"/><text class="pointlabel isotopic2C3H7NO3" x="259.8520961530815" y="94.49999999999997" text-anchor="middle"/><text class="pointlabel isotopic2C3H7NO3" x="285.80047087833157" y="606.7392530925" text-anchor="middle"/><text class="pointlabel isotopic2C3H7NO3" x="311.71453697560844" y="623.4289614929596" text-anchor="middle"/><text class="pointlabel isotopic2C3H7NO3" x="337.659798079289" y="626.8755614134056" text-anchor="middle"/><text class="pointlabel isotopic2C3H7NO3" x="363.5776308571184" y="626.9915857370637" text-anchor="middle"/></g><g class="lineSeries globalspectrum" clip-path="url(#clip-MassSpectrumContainer)"><path class="line globalspectrum" stroke="#000000" stroke-width="2" fill="none" d="M94.19541692235174,639L226.91607860231406,638.9984858956437L228.374547411984,638.9953659110752L229.8330162216539,638.9865408179325L231.29148503132387,638.9628984645353L232.7499538409938,638.9029139273852L234.20842265066338,638.7587948899518L235.66689146033332,638.4309465649593L237.12536027000328,637.7249453900969L238.5838290796732,636.2861508847162L240.04229788934316,633.5122345927244L241.50076669901307,628.4554069277157L242.95923550868304,619.7442762391498L244.41770431835297,605.5761353641576L245.87617312802288,583.84421069171L247.33464193769285,552.4566361624317L248.79311074736276,509.8617080549693L250.25157955703273,455.7157889973612L251.71004836670267,391.535018252394L253.1685171763726,321.0997644117594L254.62698598604254,250.37934331601772L256.0854547957121,186.84405818512522L257.543923605382,138.21960709044447L259.002392415052,110.95276791913324L260.4608612247219,108.80545272885301L261.91933003439186,131.99984334239096L263.37779884406183,177.18157515438259L264.8362676537318,238.20632290520206L266.29473646340165,307.4938117167932L267.7532052730716,377.53716876857135L269.2116740827416,442.15780072497756L270.67014289241155,497.23698435757257L272.12861170208146,540.8603069039452L273.58708051175137,572.9923089366686L275.04554932142133,594.8965341161735L276.50401813109124,608.5182474507434L277.9624869407608,615.981056121172L279.4209557504308,619.2594787734462L280.87942456010074,620.0158659493054L282.33789336977065,619.5513368308009L283.7963621794406,618.8159343124656L285.25483098911053,618.4399475855945L286.7132997987805,618.7704086016304L288.1717686084504,619.9125276294388L289.6302374181204,621.7809085360536L291.08870622779034,624.1617933318445L292.5471750374602,626.7807158000371L294.00564384713016,629.3651009683679L295.4641126568001,631.6913345592885L296.9225814664701,633.6102927592032L298.38105027614,635.0517194170953L299.83951908580957,636.0131612604966L301.29798789547954,636.541484786165L302.7564567051495,636.7140447705092L304.21492551481936,636.6236405155219L305.6733943244893,636.3679399513812L307.1318631341593,636.0419715011922L308.5903319438292,635.731655776697L310.04880075349917,635.5072993364608L311.5072695631691,635.4174496381544L312.96573837283904,635.4846349350688L314.42420718250895,635.7046725330753L315.8826759921789,636.0503802450188L317.3411448018489,636.4791303852109L318.7996136115188,636.9424288296245L320.2580824211887,637.3951408761158L321.71655123085833,637.8023032561781L323.17502004052824,638.1424326907971L324.63348885019815,638.4074006014321L326.0919576598681,638.5998356448943L327.5504264695381,638.7293895681651L329.00889527920805,638.8090661529071L330.4673640888779,638.852369434943L331.92583289854787,638.8715152747162L333.38430170821783,638.8765783648462L334.8427705178878,638.8752688442504L336.3012393275577,638.8730390315274L339.2181769468976,638.8778195841985L340.6766457565675,638.8868268393911L342.13511456623746,638.8996065985779L343.59358337590703,638.914797159137L345.052052185577,638.93081472517L346.5105209952469,638.9461932300169L347.9689898049169,638.9598147944877L349.4274586145868,638.97101202421L350.88592742425675,638.9795560125465L352.34439623392666,638.9855674617052L353.8028650435966,638.9893957653L355.2613338532666,638.9915031667409L356.71980266293644,638.9923757615683L361.09520909194634,638.9917693791506L366.9290843306257,638.9925201431151L368.3875531402956,638.9934144498566L369.8460219499656,638.9944532780682L371.30449075963554,638.9955315693842L372.76295956930545,638.9965569070297L374.2214283789754,638.9974622386001L375.6798971886453,638.9982105942391L377.1383659983153,638.9987928061245L380.05530361765517,638.9995185267408L635.2873453098903,638.9985145492992L636.7458141195601,638.9960630017631L638.2042829292301,638.989969531368L639.6627517389,638.9754317552956L641.12122054857,638.9421408997998L642.5796893582399,638.8689727974541L644.0381581679095,638.7146413895308L645.4966269775798,638.4022665609161L646.9550957872493,637.7956342765812L648.4135645969197,636.6655178446136L649.8720334065893,634.6463750977936L651.3305022162592,631.1875626735789L652.7889710259292,625.5090090766116L654.247439835599,616.5782515018216L655.705908645269,603.1317792949193L657.164377454939,583.7653996660182L658.6228462646088,557.1120894146194L660.0813150742789,522.1088583543961L661.5397838839488,478.3271199851829L662.9982526936187,426.3092718610621L664.4567215032887,367.8277123721862L665.9151903129582,305.9736692848117L667.3736591226286,245.0018245629883L668.8321279322981,189.9048385147444L670.2905967419683,145.76040319825248L671.7490655516381,116.96305902443211L673.2075343613079,106.49999999999997L674.6660031709778,115.43544606329313L676.1244719806479,142.72588602107922L677.5829407903177,185.409309593746L679.0414095999878,239.11968899574657L680.4998784096576,298.80220341769467L681.9583472193275,359.467430704136L683.4168160289976,416.8319823396293L684.8752848386674,467.7408105305607L686.3337536483374,510.333110651086L687.792222458007,543.9770264844839L689.2506912676772,569.0411463951082L690.7091600773468,586.5861316407559L692.1676288870168,598.0509530352346L693.6260976966867,604.9848247553903L695.0845665063566,608.8491373652673L696.5430353160266,610.8919186309528L698.0015041256966,612.0843834587445L699.4599729353665,613.1045180291193L700.9184417450364,614.3534614227292L702.3769105547063,615.9933750333323L703.8353793643763,617.9982215515414L705.2938481740463,620.2105866264554L706.7523169837161,622.398664413964L708.2107857933861,624.308479107963L709.6692546030557,625.7077632456842L711.127723412726,626.4195714121207L712.5861922223955,626.34520465672L714.0446610320655,625.4768709763085L715.5031298417355,623.9005645716973L716.9615986514054,621.7892332860823L718.4200674610753,619.3860551870524L719.8785362707453,616.9781666899462L721.3370050804152,614.862620495166L722.7954738900851,613.3086007458936L724.2539426997552,612.5214994699091L725.712411509425,612.6155339602055L727.170880319095,613.6003426545315L728.6293491287649,615.3843968038716L730.0878179384348,617.7943663640149L731.5462867481044,620.6060347442929L733.0047555577747,623.5800374636432L734.4632243674442,626.4952456083695L735.9216931771143,629.1740091524374L737.3801619867842,631.4961059170614L738.838630796454,633.4011906809842L740.2970996061241,634.8819412449845L741.755568415794,635.9714261692961L743.2140372254639,636.7283853764083L744.6725060351339,637.2233978035563L746.1309748448037,637.527766806668L747.5894436544738,637.7058179978984L749.0479124641437,637.8104714396231L750.5063812738136,637.8814801088779L751.9648500834836,637.9456124440892L753.4233188931531,638.0181097853423L754.8817877028234,638.1048868693897L756.340256512493,638.2050647983076L757.7987253221629,638.3135136126253L759.2571941318329,638.4231476270181L760.7156629415028,638.5267837237556L762.1741317511728,638.6184532711723L763.6326005608428,638.6941475941046L765.0910693705126,638.752058415189L766.5495381801826,638.7924308121095L768.0080069898526,638.8171677794544L769.4664757995225,638.8293152247883L770.9249446091924,638.8325262467106L772.3834134188623,638.8305691031021L773.8418822285323,638.8269130033L775.3003510382018,638.8244164516319L776.7588198478722,638.8251208547167L778.2172886575418,638.8301630948014L779.6757574672117,638.8398023499163L781.1342262768817,638.8535495643703L782.5926950865515,638.8703735461875L784.0511638962215,638.8889464260092L785.5096327058915,638.9078867089496L786.9681015155613,638.9259625164884L788.4265703252314,638.9422297590016L789.8850391349013,638.9560961928596L791.3435079445711,638.9673179056211L792.8019767542412,638.9759458591483L794.260445563911,638.982244831036L795.7189143735811,638.9866057896838L797.1773831832506,638.9894673863748L798.6358519929208,638.9912554020506L800.0943208025906,638.9923426918552L801.5527896122604,638.9930281499132L804.4697272316004,638.9939925449565L807.3866648509402,638.9950583160218L808.8451336606101,638.995682793639L810.30360247028,638.9963386353002L811.7620712799501,638.9969905812491L813.2205400896199,638.9976048057841L814.6790088992899,638.9981548862814L817.5959465186297,638.9990078949567L821.9713529476392,638.9996943726906L996.2347264947291,639"/></g><g class="annotationsSeries annotation0C3H7NO2S" clip-path="url(#clip-MassSpectrumContainer)"><g class="annotation annotation0C3H7NO2S" transform="translate( 676.840663371817, 106.49999999999997)"><use xlink:href="#markerdef"/><text class="annotationText annotation0C3H7NO2S" x="12" y="-74"><tspan x="12" dy="1.1em">C₃H₇NO₂S</tspan><tspan x="12" dy="1.4em"/></text></g></g><g class="annotationsSeries annotation2C3H7NO3" clip-path="url(#clip-MassSpectrumContainer)"><g class="annotation annotation2C3H7NO3" transform="translate( 261.14889612288994, 106.49999999999997)"><use xlink:href="#markerdef"/><text class="annotationText annotation2C3H7NO3" x="12" y="-74"><tspan x="12" dy="1.1em">C₃H₇NO₃</tspan><tspan x="12" dy="1.4em"/></text></g></g><g id="markers_MassSpectrumContainer" clip-path="url(#clip-MassSpectrumContainer)" style="display: none;"/><g id="barTooltips_MassSpectrumContainer" clip-path="url(#clip-MassSpectrumContainer)"/></g><text class="chart-title h4" font-size="18px" x="517.5" y="30" text-anchor="middle">Simulated Mass Spectrum</text><g font-size="14px" class="move legend" transform="translate(915, 60)"><clipPath id="clip-legend_MassSpectrumContainer"><rect class="resize resize-x resize-y legend" x="-15" y="-15" height="90" width="180"/></clipPath><rect class="resize resize-x resize-y legend" x="0" y="0" height="90" width="180" stroke="gray" fill="lightgrey" style="opacity: 0.5;"/><g transform="translate(15, 15)"><g class="seriessymbol"><rect clip-path="url(#clip-legend_MassSpectrumContainer)" class="seriessymbol isotopic0C3H7NO2S" x="0" y="0" width="12" height="12" stroke="rgb(28, 57, 132)" fill="#2851bd"/><text clip-path="url(#clip-legend_MassSpectrumContainer)" class="seriessymbol isotopic0C3H7NO2S" style="font-size: inherit;" x="20" y="0" dy="12">C₃H₇NO₂S</text></g><g class="seriessymbol"><rect clip-path="url(#clip-legend_MassSpectrumContainer)" class="seriessymbol isotopic2C3H7NO3" x="0" y="20" width="12" height="12" stroke="rgb(165, 128, 0)" fill="#ebb700"/><text clip-path="url(#clip-legend_MassSpectrumContainer)" class="seriessymbol isotopic2C3H7NO3" style="font-size: inherit;" x="20" y="20" dy="12">C₃H₇NO₃</text></g><g class="seriessymbol"><rect clip-path="url(#clip-legend_MassSpectrumContainer)" class="seriessymbol globalspectrum" x="0" y="40" width="12" height="12" stroke="rgb(0, 0, 0)" fill="#000000"/><text clip-path="url(#clip-legend_MassSpectrumContainer)" class="seriessymbol globalspectrum" style="font-size: inherit;" x="20" y="40" dy="12">Mass spectrum</text></g></g><polygon class="resizehandle" points="180 90, 180 66, 156 90" fill="gray" style="opacity: 0.5;"/></g><g class="move legend" transform="translate(915, 60)"><rect class="movehandle resize resize-x legend" x="0" y="-24" height="24" width="180" stroke="gray" fill="gray" style="opacity: 0.5;"/></g></svg>